<svg width="36" height="36" viewBox="0 0 36 36" fill="none" xmlns="http://www.w3.org/2000/svg">
<rect width="36" height="36" rx="8" fill="white"/>
<path d="M7.0834 6L6.43698 6.88672C4.68552 9.63449 3.87797 12.9615 4.01489 16.8835C4.07787 18.6876 4.42039 20.1206 4.95185 21.2327C5.48331 22.3449 5.89897 22.7857 6.48595 23.2833C7.81915 24.43 9.28752 24.598 10.0409 24.5714C11.7015 24.5128 12.8241 23.5936 13.7631 23.152L12.6267 20.5847C11.3998 21.1621 10.4344 21.7302 9.94237 21.7476C9.65022 21.7579 8.90889 21.6899 8.27414 21.1468C7.63939 20.6038 6.87675 19.4841 6.78255 16.7858C6.63797 12.6442 7.93527 10.1166 8.42738 9.21964C10.156 9.78689 12.1675 10.0771 14.0257 10.8283C15.1344 11.2761 16.0327 11.8726 16.6905 12.6348C17.3483 13.3969 17.7963 14.3235 17.8472 15.7825C17.896 17.1787 17.3814 17.8723 16.8909 18.3765C16.8014 18.4582 16.7564 18.4912 16.6817 18.5567C15.8823 16.8257 14.6079 15.1586 12.6636 13.7037L11.0511 16.0225C15.4142 19.2926 15.3402 23.3476 15.4755 27.2225L18.2432 27.1248C18.1846 25.4462 18.0986 23.423 17.6106 21.3512C17.9725 21.1342 18.4233 20.8199 18.8698 20.38C19.7919 19.4521 20.691 17.8654 20.6149 15.6848C20.5442 13.661 19.8541 11.9733 18.7955 10.7541C17.7369 9.53493 16.3713 8.78208 15.0281 8.23263C12.3265 7.13428 7.92794 6.37857 7.0834 6Z" fill="#27AE60"/>
<path d="M32 21.3909L31.8498 22.1528C31.2642 24.382 29.928 26.3938 27.8328 28.1953C26.869 29.024 25.9638 29.5291 25.1343 29.782C24.3049 30.035 23.8782 30.028 23.3404 29.9584C22.1101 29.8081 21.3219 29.1197 20.9758 28.7126C20.213 27.8153 20.1526 26.7887 19.9327 26.0862L21.8041 25.455C22.0913 26.3729 22.2583 27.1497 22.4843 27.4155C22.6185 27.5734 23.0078 27.929 23.592 28.0019C24.1763 28.0748 25.12 27.9392 26.5615 26.6998C28.774 24.7974 29.4626 22.9111 29.6918 22.2251C28.5726 21.5911 27.4617 20.6768 26.1854 20.0628C25.4242 19.6963 24.6863 19.511 23.9777 19.5307C23.2691 19.5503 22.5756 19.7584 21.7962 20.4285C21.0503 21.0698 20.9371 21.6705 20.9104 22.168C20.9108 22.2539 20.9153 22.2933 20.917 22.3636C22.1947 21.9554 23.6662 21.8263 25.3478 22.1492L24.9179 24.1008C21.1416 23.3786 19.0782 25.354 17.0081 27.1339L15.7368 25.6384C16.6336 24.8674 17.7218 23.9461 19.0271 23.2121C18.9666 22.919 18.9139 22.5328 18.9283 22.089C18.9681 21.1632 19.3599 19.9346 20.5249 18.933C21.606 18.0034 22.8091 17.5586 23.9457 17.5305C25.0823 17.5024 26.1242 17.8577 27.05 18.2984C28.9088 19.188 31.4007 21.1297 32 21.3909Z" fill="#27AE60"/>
</svg>
